<?xml version="1.0" encoding="UTF-8"?>
<svg version="1.1" xmlns="http://www.w3.org/2000/svg" width="1024" height="559">
<path d="M0 0 C6.68849985 3.40093212 12.53417462 8.07569585 18.31640625 12.8125 C21.44455996 15.36237785 24.61916323 17.84508565 27.8125 20.3125 C28.35181152 20.73313721 28.89112305 21.15377441 29.44677734 21.5871582 C32.51808665 23.95714867 35.6314263 26.07599025 39 28 C39.20625 27.443125 39.4125 26.88625 39.625 26.3125 C42.12428572 22.10915583 46.36881084 18.63453735 51 17 C58.43138725 15.48853141 64.52204823 16.12725674 71.25 19.75 C76.59075564 24.11970916 80.55706364 28.77772348 81.30078125 35.8671875 C81.3250368 42.0927795 80.97472631 46.50819757 78 52 C77.32953197 53.33142587 76.66205708 54.66437181 76 56 C81.77579405 60.72060091 87.6536724 65.28093882 93.625 69.75 C94.29821289 70.25515137 94.97142578 70.76030273 95.66503906 71.28076172 C99.23917636 73.95674368 102.82950698 76.60712638 106.4453125 79.2265625 C107.16638184 79.75411133 107.88745117 80.28166016 108.63037109 80.82519531 C110.00489909 81.83020611 111.38514061 82.82746675 112.77197266 83.81542969 C117.67491906 87.41672006 121.03131898 91.09395693 123 97 C123.39680449 102.25765945 122.89498146 105.56102842 120 110 C115.43153823 114.63087245 111.7229697 116.06894333 105.23046875 116.328125 C102.14270307 115.87388276 99.75490172 114.42482755 97 113 C96.98541748 113.92748047 96.97083496 114.85496094 96.95581055 115.81054688 C96.89438849 119.28490808 96.82017084 122.75852453 96.73754883 126.23242188 C96.70450134 127.72971472 96.67640798 129.2271261 96.65356445 130.72460938 C96.41801334 145.75978665 96.41801334 145.75978665 93 153 C92.27265064 155.00364405 92.27265064 155.00364405 92 157 C93.3553326 159.53673288 93.3553326 159.53673288 95 162 C95.92831746 164.93277578 96.1444028 167.63510124 96.19287109 170.70166016 C96.20893402 171.63007721 96.22499695 172.55849426 96.24154663 173.51504517 C96.2863496 177.76343807 96.32707858 182.01167945 96.35009766 186.26025391 C96.3666205 188.49278209 96.39386157 190.72525818 96.43212891 192.95751953 C96.48724903 196.19331019 96.50882776 199.42786385 96.5234375 202.6640625 C96.54610687 203.64984283 96.56877625 204.63562317 96.59213257 205.65127563 C96.57096604 212.68686436 95.03496775 218.16701123 91 224 C85.41297919 229.24202412 81.12527578 231.12777315 73.41723633 231.11352539 C72.75355545 231.11367142 72.08987457 231.11381744 71.40608215 231.1139679 C69.21469848 231.11327182 67.02340005 231.1054937 64.83203125 231.09765625 C63.31174262 231.09579099 61.79145339 231.09436759 60.27116394 231.09336853 C56.27135557 231.08955188 52.27158356 231.07972885 48.27178955 231.06866455 C44.18966158 231.05843213 40.10752773 231.05386698 36.02539062 231.04882812 C28.01691041 231.03810583 20.00845973 231.02103961 12 231 C12 230.01 12 229.02 12 228 C18.75 224 18.75 224 21 224 C22.07010067 221.98675976 22.9656658 220.12341752 23.578125 217.921875 C25.7054715 211.04510377 29.9820299 208.69509411 35.95996094 205.38769531 C38.82507403 203.88998772 40.72599839 203 44 203 C44 202.34 44 201.68 44 201 C45.7578125 199.44921875 45.7578125 199.44921875 48.125 197.6875 C49.35863281 196.75357422 49.35863281 196.75357422 50.6171875 195.80078125 C51.40351562 195.20652344 52.18984375 194.61226562 53 194 C56.08657507 191.55131711 58.90330071 189.11120418 61.5 186.125 C64 184 64 184 67.3125 184.1875 C68.199375 184.455625 69.08625 184.72375 70 185 C70 185.66 70 186.32 70 187 C70.66 187 71.32 187 72 187 C72.40913785 189.8944327 72.60162576 192.08922859 70.94238281 194.60107422 C69.40329744 196.2988876 67.80068292 197.87427278 66.125 199.4375 C65.53364258 200.00662109 64.94228516 200.57574219 64.33300781 201.16210938 C57.47991316 207.63427108 50.08716152 212.64580259 41.71484375 216.95703125 C39.8311898 217.89445609 39.8311898 217.89445609 39 220 C43.55356095 219.90577254 48.10663297 219.79953368 52.65966797 219.68261719 C54.20549035 219.64456022 55.75139428 219.60966868 57.29736328 219.578125 C59.53187018 219.53196346 61.76582671 219.4740602 64 219.4140625 C65.02081665 219.39673569 65.02081665 219.39673569 66.06225586 219.37905884 C74.58677282 219.20808156 74.58677282 219.20808156 81.70344543 215.2272644 C83.20696759 212.64446421 83.39327089 211.11141216 83.43237305 208.13964844 C83.45216721 207.17895447 83.47196136 206.2182605 83.49235535 205.22845459 C83.49874527 204.19915833 83.50513519 203.16986206 83.51171875 202.109375 C83.52966995 201.04962463 83.54762115 199.98987427 83.56611633 198.89801025 C83.6202702 195.51538056 83.65413199 192.1328924 83.6875 188.75 C83.72066852 186.45570945 83.75515773 184.16143759 83.79101562 181.8671875 C83.87599955 176.24491857 83.94432802 170.62263144 84 165 C82.55350765 164.98297498 81.10695762 164.97080112 79.66040039 164.96069336 C78.85486221 164.95339706 78.04932404 164.94610077 77.21937561 164.93858337 C67.90172783 165.19642999 61.03053959 172.89155356 54.9609375 179.09765625 C45.20735802 189.06393061 35.72085411 196.03300142 23 202 C23.14308594 203.10408203 23.14308594 203.10408203 23.2890625 204.23046875 C23.39992188 205.20628906 23.51078125 206.18210937 23.625 207.1875 C23.74101563 208.15042969 23.85703125 209.11335937 23.9765625 210.10546875 C24.01058629 214.30740731 22.59165664 217.02968311 20.4375 220.5625 C11.48209986 229.51790014 -4.93116887 231.13101453 -16.91967773 231.17700195 C-18.05773361 231.18685875 -18.05773361 231.18685875 -19.21878052 231.19691467 C-21.70705287 231.21648148 -24.19526552 231.22826953 -26.68359375 231.23828125 C-27.53876146 231.24235678 -28.39392918 231.2464323 -29.27501106 231.25063133 C-33.79702633 231.27141589 -38.3190119 231.2857533 -42.84106445 231.29516602 C-47.49581481 231.30624682 -52.15008935 231.34068767 -56.80467129 231.38033772 C-60.40018066 231.40653729 -63.99557675 231.41486054 -67.59117317 231.41844749 C-69.3066945 231.42330057 -71.0222112 231.4348779 -72.73763847 231.45348549 C-91.25257246 231.64192915 -91.25257246 231.64192915 -98.8125 224.25 C-103.65506113 217.05533775 -104.44585434 210.85662771 -104.36328125 202.40234375 C-104.36377975 201.40924698 -104.36427826 200.41615021 -104.36479187 199.39295959 C-104.36246277 197.30451444 -104.35280348 195.21606586 -104.33618164 193.12768555 C-104.31254521 189.94359069 -104.31563554 186.76033253 -104.32226562 183.57617188 C-104.31668926 181.53905754 -104.30957965 179.50194671 -104.30078125 177.46484375 C-104.30169266 176.51987534 -104.30260406 175.57490692 -104.30354309 174.6013031 C-104.23308571 167.98869345 -103.75755977 162.63633965 -100 157 C-100.38844026 154.22532925 -101.31531242 152.34554803 -102.55078125 149.78125 C-105.10740667 143.07962761 -104.31074295 135.56282883 -104.1875 128.5 C-104.1724286 126.99480503 -104.15874453 125.48959549 -104.14648438 123.984375 C-104.11366687 120.32261059 -104.06201989 116.66139979 -104 113 C-105.0828125 113.48726563 -106.165625 113.97453125 -107.28125 114.4765625 C-112.32720255 116.74724115 -116.35109354 116.51172959 -121.625 114.875 C-126.36924521 112.23930822 -129.24431493 109.2670552 -131 104 C-131.58869727 97.99528782 -130.53716776 93.80644168 -127 89 C-123.93160388 85.98416741 -120.47554519 83.51890234 -117 81 C-115.5251713 79.91263786 -114.05128808 78.82399267 -112.578125 77.734375 C-109.3021903 75.31480497 -106.02158642 72.90174394 -102.73828125 70.4921875 C-98.59261712 67.44329085 -94.46701038 64.37055952 -90.375 61.25 C-88.83972656 60.08210938 -88.83972656 60.08210938 -87.2734375 58.890625 C-84.93384967 57.2024897 -84.93384967 57.2024897 -84 55 C-84.639375 54.0925 -85.27875 53.185 -85.9375 52.25 C-89.58522777 46.50206533 -89.66714366 40.68996836 -89 34 C-87.31317637 28.5544933 -84.28041545 24.74536352 -80 21 C-79.38125 20.443125 -78.7625 19.88625 -78.125 19.3125 C-72.78745126 16.01577872 -67.56789672 15.60898597 -61.49609375 16.39453125 C-55.17075695 17.92884612 -50.64664608 21.68197447 -47 27 C-42.91200712 26.44472228 -40.73169217 24.29445759 -37.6875 21.625 C-32.89259019 17.50487306 -27.96542793 13.62416007 -22.875 9.875 C-22.22362061 9.3898291 -21.57224121 8.9046582 -20.90112305 8.40478516 C-16.24463297 5 -16.24463297 5 -14 5 C-14 4.34 -14 3.68 -14 3 C-9.11820503 0.60891675 -5.5257959 -0.92096598 0 0 Z M-9.6171875 14.45703125 C-10.64102539 15.25258423 -10.64102539 15.25258423 -11.68554688 16.06420898 C-12.76932617 16.92961304 -12.76932617 16.92961304 -13.875 17.8125 C-14.62587891 18.399104 -15.37675781 18.98570801 -16.15039062 19.59008789 C-18.44169818 21.38337984 -20.72222432 23.18956278 -23 25 C-25.49870249 26.98081161 -27.99892767 28.95968198 -30.5 30.9375 C-31.06783203 31.38899414 -31.63566406 31.84048828 -32.22070312 32.30566406 C-36.17216185 35.42364824 -40.23294553 38.2500048 -44.5234375 40.87890625 C-45.01070313 41.24886719 -45.49796875 41.61882812 -46 42 C-46 42.66 -46 43.32 -46 44 C-49.33333333 45.66666667 -52.66666667 47.33333333 -56 49 C-55.7525 48.01 -55.7525 48.01 -55.5 47 C-54.68584783 42.11508698 -54.23155172 37.82000909 -56.1875 33.1875 C-59.2715401 29.46538264 -61.67243153 28.14223948 -66.5 27.625 C-70.34151162 28.03659053 -72.08028473 28.48580074 -75 31 C-77.33566752 34.84254979 -78.3791854 37.71656556 -77.5625 42.125 C-76.17034555 46.47864663 -73.88188966 48.55584725 -70 51 C-67.32366097 51.91938985 -64.79431439 52.47004382 -62 53 C-62 53.99 -62 54.98 -62 56 C-62.65097656 56.1959375 -63.30195313 56.391875 -63.97265625 56.59375 C-68.30050727 58.6041066 -71.73039036 61.5231083 -75.4375 64.5 C-80.89470427 68.81723782 -86.36345449 73.06881261 -92.0625 77.0625 C-98.30723717 81.44451285 -104.36573594 86.05024289 -110.40454102 90.71118164 C-111.08959717 91.2396167 -111.77465332 91.76805176 -112.48046875 92.3125 C-113.08785889 92.78300781 -113.69524902 93.25351563 -114.32104492 93.73828125 C-115.84092568 94.88045716 -117.41809682 95.94539788 -119 97 C-119.2502157 100.08365871 -119.2502157 100.08365871 -119 103 C-114.40401138 104.34322399 -114.40401138 104.34322399 -109.98681641 102.97363281 C-107.85377997 101.43324903 -105.82767575 99.81661232 -103.8125 98.125 C-102.42760982 96.9971393 -101.03842879 95.87452205 -99.64453125 94.7578125 C-99.03971924 94.2539502 -98.43490723 93.75008789 -97.81176758 93.23095703 C-96 92 -96 92 -92 91 C-92 100.9 -92 110.8 -92 121 C-88.04 120.01 -88.04 120.01 -84 119 C-77.71170564 118.31400425 -73.47706738 120.22603242 -68 123 C-67.27296875 123.33128906 -66.5459375 123.66257812 -65.796875 124.00390625 C-63.12225852 125.48657408 -62.92408151 127.10454461 -62 130 C-61.72929687 130.65226562 -61.45859375 131.30453125 -61.1796875 131.9765625 C-58.89071823 137.81240308 -58.23560118 142.90997828 -60 149 C-61.73368907 152.22791832 -63.73091018 155.12720739 -66 158 C-64.64738766 161.10699073 -63.24756433 162.87539092 -60.625 165 C-57.45906766 167.65640616 -54.56379222 170.44387817 -51.70825195 173.42163086 C-41.69049081 183.81893794 -30.34308972 189.71537128 -17 195 C-17 195.99 -17 196.98 -17 198 C-20.33455608 197.9475585 -23.66663231 197.85235976 -27 197.75 C-27.93457031 197.73582031 -28.86914062 197.72164062 -29.83203125 197.70703125 C-40.90975531 197.31969824 -47.9057133 192.29568651 -56 185 C-57.19617179 183.69307156 -58.36715052 182.36218242 -59.5 181 C-60.325 180.01 -61.15 179.02 -62 178 C-62.66 178 -63.32 178 -64 178 C-64 177.34 -64 176.68 -64 176 C-70.83427471 169.37929638 -77.22160979 164.46599921 -86.875 163.6875 C-90.0989434 163.67678488 -90.0989434 163.67678488 -92 166 C-92.31911692 168.06452442 -92.31911692 168.06452442 -92.29052734 170.4621582 C-92.30328705 171.38684402 -92.31604675 172.31152985 -92.32919312 173.26423645 C-92.33141876 174.26629623 -92.33364441 175.26835602 -92.3359375 176.30078125 C-92.3425943 177.3293071 -92.3492511 178.35783295 -92.35610962 179.41752625 C-92.36624932 181.59726164 -92.37092623 183.77702816 -92.37060547 185.95678711 C-92.37496893 189.28877201 -92.41124869 192.61942239 -92.44921875 195.95117188 C-92.45508857 198.0677038 -92.45905686 200.18424202 -92.4609375 202.30078125 C-92.47530853 203.29676834 -92.48967957 204.29275543 -92.50448608 205.31892395 C-92.47741673 209.42839375 -92.33291354 212.30895219 -90.53369141 216.04370117 C-83.42156026 221.53507782 -73.35882829 220.29243327 -64.83203125 220.265625 C-63.46595694 220.26697644 -62.09988311 220.26892094 -60.73381042 220.27142334 C-57.88035471 220.27435708 -55.02702494 220.27013713 -52.17358398 220.26074219 C-48.55764259 220.24940314 -44.94200006 220.25588287 -41.32606983 220.26788712 C-38.50579174 220.27520011 -35.68558155 220.27277423 -32.86530113 220.26763153 C-30.89708127 220.26568919 -28.92885852 220.27165598 -26.96064758 220.27789307 C-6.12356567 220.45769425 -6.12356567 220.45769425 12 212 C11.67958603 209.39719432 11.67958603 209.39719432 11 207 C7.78974852 205.92991617 6.75227531 206.06081587 3.54296875 206.7421875 C2.67736328 206.92136719 1.81175781 207.10054687 0.91992188 207.28515625 C0.01822266 207.47980469 -0.88347656 207.67445313 -1.8125 207.875 C-26.09396914 212.97393269 -49.21879753 213.10297763 -71 200 C-74.87160667 197.44638709 -77.56290111 195.39325272 -79 190.8125 C-79 188 -79 188 -78 185 C-74.52864188 184.70530917 -72.61494956 184.58208318 -69.68359375 186.57421875 C-68.94238281 187.27160156 -68.20117188 187.96898437 -67.4375 188.6875 C-53.0131759 200.9797219 -33.93383415 201.07953855 -16 200 C12.77386168 197.01398808 32.47800937 185.61782697 52.11572266 164.85009766 C53.96878428 163.03064949 55.88795846 161.50625764 58 160 C57.05021922 158.04482065 56.09660599 156.15196051 54.9296875 154.31640625 C51.23071408 148.16515046 51.14070078 142.01468751 52 135 C53.68423842 129.09570353 56.89795096 125.43407147 62 122 C69.36479828 117.92079061 76.09330541 119.02332635 84 121 C84 111.1 84 101.2 84 91 C87.66554105 92.46621642 89.69322075 93.30651481 92.62890625 95.56640625 C93.27150391 96.05173828 93.91410156 96.53707031 94.57617188 97.03710938 C95.90473488 98.05737261 97.23285726 99.07820984 98.56054688 100.09960938 C99.20185547 100.58365234 99.84316406 101.06769531 100.50390625 101.56640625 C101.36737671 102.23071655 101.36737671 102.23071655 102.24829102 102.90844727 C104.22029748 104.13727526 105.68782929 104.73825023 108 105 C108.99 104.34 109.98 103.68 111 103 C110.92476863 98.36680755 110.92476863 98.36680755 108.63720703 94.48486328 C106.83378807 93.06894741 104.99075613 91.80277574 103.0625 90.5625 C102.41603516 90.11712891 101.76957031 89.67175781 101.10351562 89.21289062 C97.83969908 86.80596529 97.83969908 86.80596529 94 86 C94 85.34 94 84.68 94 84 C92.09530273 82.4961281 90.1881263 81.11706295 88.1875 79.75 C86.91040912 78.85827159 85.63443 77.96494953 84.359375 77.0703125 C83.66392578 76.58336914 82.96847656 76.09642578 82.25195312 75.59472656 C78.10713102 72.65955983 74.02416554 69.64034235 69.9375 66.625 C69.12885498 66.03041992 68.32020996 65.43583984 67.48706055 64.82324219 C64.29062964 62.46611254 61.1339902 60.11026091 58.06640625 57.5859375 C56.16971049 55.79705309 56.16971049 55.79705309 54 56 C54 55.01 54 54.02 54 53 C54.67546875 52.82984375 55.3509375 52.6596875 56.046875 52.484375 C62.9423225 50.74028762 62.9423225 50.74028762 68 46 C70.39391184 41.78215533 70.24494045 38.64777767 69 34 C66.81008403 31.41702219 65.03168312 29.51584156 62 28 C57.03865547 27.6255589 53.88677759 27.76101867 50 31 C46.82461497 35.44553905 46.81526639 38.67502194 47.578125 43.8515625 C47.98484475 45.9228205 48.46424991 47.95860741 49 50 C41.70047816 45.69009521 35.14509332 40.83619554 28.57910156 35.50195312 C19.96861582 27.33507675 19.96861582 27.33507675 10 23 C8.2856382 24.95927063 6.61594832 26.95880212 5 29 C6.29421956 31.89878769 7.57861239 33.78384618 9.984375 35.84765625 C10.88168335 36.62326904 10.88168335 36.62326904 11.79711914 37.41455078 C12.44156982 37.95837402 13.08602051 38.50219727 13.75 39.0625 C14.4195874 39.63468262 15.0891748 40.20686523 15.77905273 40.79638672 C22.37043299 46.39034118 29.15895085 51.71702072 36 57 C58.65001482 74.54467725 58.65001482 74.54467725 61 80 C61.66 80 62.32 80 63 80 C63.46246708 81.33190519 63.91969155 82.6656307 64.375 84 C64.63023437 84.7425 64.88546875 85.485 65.1484375 86.25 C67.32982961 93.29449562 68.35405366 99.65058057 68.625 107 C68.66367187 107.87011719 68.70234375 108.74023438 68.7421875 109.63671875 C68.83540887 111.75750486 68.91874136 113.87872185 69 116 C65.37 116.99 61.74 117.98 58 119 C58.04125 117.123125 58.0825 115.24625 58.125 113.3125 C58.0973561 100.62394972 56.94507643 89.96049169 48 80.5625 C43.63299786 76.38879139 38.92148299 72.81088543 34.046875 69.25390625 C29.2181007 65.68185142 24.62788959 61.82626097 20 58 C18.15045327 56.47355153 16.29649175 54.95243159 14.4375 53.4375 C13.63183594 52.77621094 12.82617188 52.11492187 11.99609375 51.43359375 C10.13885027 49.80555292 10.13885027 49.80555292 8 50 C8 49.34 8 48.68 8 48 C5.89998327 45.95141734 5.89998327 45.95141734 3.25 43.875 C2.36828125 43.15054688 1.4865625 42.42609375 0.578125 41.6796875 C-2.04573799 39.63607968 -2.04573799 39.63607968 -6 40 C-6.99 40.66 -7.98 41.32 -9 42 C-9 42.66 -9 43.32 -9 44 C-9.84304688 44.37705078 -9.84304688 44.37705078 -10.703125 44.76171875 C-13.34933319 46.18833099 -15.44345088 47.88201868 -17.75 49.8125 C-18.71808594 50.61558594 -19.68617188 51.41867188 -20.68359375 52.24609375 C-21.2132373 52.68679199 -21.74288086 53.12749023 -22.28857422 53.58154297 C-25.44696593 56.19926849 -28.62989216 58.78681513 -31.8125 61.375 C-32.48949951 61.92663818 -33.16649902 62.47827637 -33.86401367 63.04663086 C-37.79124204 66.23770775 -41.75226313 69.37756855 -45.75512695 72.47314453 C-56.15147479 80.53687941 -63.38005306 86.37424632 -65.4609375 100.0234375 C-66.06217432 106.34454893 -66.09330403 112.65532627 -66 119 C-69.3 117.68 -72.6 116.36 -76 115 C-76.05455124 112.33305052 -76.09393392 109.66724502 -76.125 107 C-76.14175781 106.25621094 -76.15851563 105.51242188 -76.17578125 104.74609375 C-76.27523908 93.30844347 -72.29002467 81.35910375 -64.29296875 72.96875 C-58.63185482 67.50216309 -52.27779082 62.8193274 -45.9375 58.1796875 C-41.14923035 54.62668954 -36.59068407 50.80238479 -32 47 C-30.20889912 45.54097184 -28.41722762 44.08264389 -26.625 42.625 C-14.68192611 32.88454836 -14.68192611 32.88454836 -3.1875 22.625 C-2.56230469 22.03976563 -1.93710937 21.45453125 -1.29296875 20.8515625 C0.41062085 18.41198102 0.39393277 16.91415323 0 14 C-0.99 13.01 -0.99 13.01 -2 12 C-6.15649245 12 -6.59888742 12.07800987 -9.6171875 14.45703125 Z M-90 134 C-92.47361688 137.71042531 -92.54607278 140.69862675 -92 145 C-90.76467542 147.84124653 -89.7444561 149.42097859 -87.3125 151.3125 C-83.11293264 152.56102003 -78.91013774 152.51625344 -74.6875 151.375 C-71.32124611 148.63212646 -70.17461805 145.19738092 -69.5625 141 C-70.1291735 137.11423889 -71.52739123 135.02207739 -74 132 C-79.68383335 127.83185554 -84.93517871 129.97116488 -90 134 Z M64 134 C61.67269886 137.74562271 61.7268136 140.53461542 62.33984375 144.8046875 C63.50422335 148.67676641 65.56669085 150.06486212 69 152 C72.58276421 152.64641043 75.80470111 152.35535913 79.3125 151.3125 C83.02779128 148.42282901 83.91385134 145.67842074 84.5 141.0625 C84.34298303 137.74630155 83.7940534 136.63461087 82.0625 133.5625 C78.60758589 130.6716535 76.63024803 129.97494115 72.21875 129.76171875 C68.64482569 130.14553809 66.62355372 131.63240274 64 134 Z " fill="#203421" transform="translate(516,136)"/>
<path d="M0 0 C4.60865176 0.36771158 7.15862706 2.41023362 10.75 5.1875 C15.69959088 8.79804336 20.59393421 11.34764003 26.375 13.375 C27.00889648 13.60082764 27.64279297 13.82665527 28.29589844 14.05932617 C35.35681 16.38594012 42.70865957 17.61920016 50 19 C50.50844581 46.6803116 49.6616248 69.25527343 32 92 C31.51273438 92.639375 31.02546875 93.27875 30.5234375 93.9375 C29.41080801 95.34292673 28.21439654 96.68151233 27 98 C26.34 98 25.68 98 25 98 C24.505 99.485 24.505 99.485 24 101 C21.9859105 102.58500087 20.00344724 104.02401607 17.875 105.4375 C16.98639282 106.03473877 16.98639282 106.03473877 16.07983398 106.64404297 C14.39210441 107.77104888 12.69626634 108.88588424 11 110 C10.27167969 110.49886719 9.54335938 110.99773437 8.79296875 111.51171875 C6.05204245 113.27506863 4.41944175 114.0331439 1.1328125 113.7734375 C-13.82462298 110.08070405 -27.07668666 95.04028293 -35.16015625 82.703125 C-44.29685941 67.57368924 -46.44616446 51.19749768 -46.5 33.8125 C-46.50467285 33.1393576 -46.5093457 32.46621521 -46.51416016 31.77267456 C-46.5367376 23.3842554 -46.5367376 23.3842554 -46 20 C-42.57596767 17.71731178 -40.22657641 17.3768921 -36.1875 16.6875 C-22.93951544 14.18442458 -9.77060068 9.77060068 0 0 Z M-4.625 18.625 C-13.63588586 24.37010622 -22.56095499 27.75915788 -33 30 C-33.74955365 50.50862073 -31.14525183 69.47470954 -16.75 85.375 C-11.85771184 90.52111328 -6.41615899 95.85188461 0 99 C9.39546468 98.4684523 17.08412485 89.48729491 23 83 C23.556875 82.40832031 24.11375 81.81664062 24.6875 81.20703125 C33.8034453 70.45306453 37.14738491 54.1916326 37.625 40.5 C37.66367187 39.5821875 37.70234375 38.664375 37.7421875 37.71875 C37.83549564 35.47935472 37.92128185 33.23994746 38 31 C37.13640869 30.71539917 37.13640869 30.71539917 36.25537109 30.42504883 C26.21597908 27.10042315 16.57421292 23.63840642 7.4375 18.234375 C2.4978973 15.73290953 -0.00169097 15.48609788 -4.625 18.625 Z " fill="#203421" transform="translate(510,208)"/>
<path d="M0 0 C3.31430059 0.82857515 5.28083434 1.59783683 8.1875 3.1875 C13.72928893 6.04160451 19.48266041 8.03882157 25.3737793 10.03198242 C30.91175335 11.91175335 30.91175335 11.91175335 32 13 C33.54102912 31.21445898 28.55884877 47.58991985 16.9921875 61.85546875 C11.97094439 67.26068927 7.30808875 71.53838225 0 73 C0 48.91 0 24.82 0 0 Z " fill="#203725" transform="translate(511,229)"/>
<path d="M0 0 C11.8301388 10.28312065 23.03503875 24.87579808 25.3046875 40.8984375 C25.2890625 42.89453125 25.2890625 42.89453125 24.2265625 46.01953125 C22.2890625 47.89453125 22.2890625 47.89453125 19.8515625 48.51953125 C16.21339406 47.63217309 15.39134691 45.96239978 13.2890625 42.89453125 C12.26204927 40.33112825 11.34192833 37.82104138 10.4765625 35.20703125 C8.01631274 28.27231059 5.06993885 22.56606336 0.2890625 16.89453125 C-0.28199219 16.20101562 -0.85304688 15.5075 -1.44140625 14.79296875 C-9.58542335 5.7980842 -20.9145707 0.2059815 -32.7109375 -2.10546875 C-33.7009375 -2.33234375 -34.6909375 -2.55921875 -35.7109375 -2.79296875 C-43.85495824 -3.64130424 -51.8538877 -2.99591097 -59.9609375 -2.03125 C-62.7109375 -2.10546875 -62.7109375 -2.10546875 -64.5625 -3.4296875 C-66.18754968 -5.80093346 -66.13278605 -7.2931451 -65.7109375 -10.10546875 C-62.80396139 -13.86689151 -59.41388878 -14.05798419 -54.92578125 -14.75390625 C-34.94707194 -16.93869828 -15.92456824 -12.36792836 0 0 Z " fill="#DBB593" transform="translate(624.7109375,111.10546875)"/>
<path d="M0 0 C4.52001861 1.60083992 8.42063568 3.49366665 12.375 6.1953125 C13.13296875 6.69804688 13.8909375 7.20078125 14.671875 7.71875 C23.78112427 14.22972347 31.2602909 24.76258364 34.0078125 35.71875 C34.66078779 40.01171519 34.66078779 40.01171519 34.375 42.1953125 C32.41047023 44.77375782 31.66083687 45.14767302 28.375 45.6953125 C25.375 45.1953125 25.375 45.1953125 23.79296875 42.98828125 C22.44736085 40.33784144 21.54706066 37.84645917 20.6875 35.0078125 C16.83101277 24.23574478 9.50513492 17.2463493 -0.625 12.1953125 C-8.46963695 8.6865292 -16.46976448 8.95501901 -24.89624023 9.21704102 C-25.73614502 9.23951904 -26.5760498 9.26199707 -27.44140625 9.28515625 C-28.19881104 9.31472412 -28.95621582 9.34429199 -29.73657227 9.37475586 C-31.625 9.1953125 -31.625 9.1953125 -33.625 7.1953125 C-34.0625 4.2578125 -34.0625 4.2578125 -33.625 1.1953125 C-31.25 -0.6171875 -31.25 -0.6171875 -28.625 -1.8046875 C-20.67425397 -5.78006052 -7.99809931 -2.38276709 0 0 Z " fill="#D7B392" transform="translate(597.625,116.8046875)"/>
<path d="M0 0 C7.68182974 4.96508507 13.29246875 11.88935709 16.25 20.59375 C16.57307692 26.94759615 16.57307692 26.94759615 15.25 29.59375 C11.9375 29.84375 11.9375 29.84375 8.25 29.59375 C5.76748597 26.93521419 4.52217514 24.040922 3.125 20.71875 C0.07456078 14.40331466 -4.64769496 11.64490252 -10.75 8.59375 C-13.91813872 8.39551189 -17.07898059 8.24811475 -20.25195312 8.1640625 C-23.15039337 8.0277989 -25.28399185 7.89985339 -27.7421875 6.28515625 C-29.45198937 3.41560505 -28.39948711 0.72309696 -27.75 -2.40625 C-18.44972563 -6.03562536 -8.79342817 -4.4966394 0 0 Z " fill="#DDB896" transform="translate(597.75,136.40625)"/>
<path d="M0 0 C1.17925049 0.32524658 2.35850098 0.65049316 3.57348633 0.9855957 C10.27378726 2.46464998 16.99720081 2.26844339 23.82421875 2.23046875 C25.25755268 2.22927299 26.6908874 2.22882462 28.1242218 2.2290802 C31.11891641 2.22752352 34.11349012 2.21930209 37.1081543 2.20581055 C40.90562816 2.18889958 44.70296877 2.18499472 48.50047588 2.18575573 C51.45971397 2.18548074 54.41892417 2.17994637 57.37815285 2.17275429 C58.77607831 2.16961877 60.17400687 2.16761251 61.57193565 2.16686058 C70.76662225 2.15650397 79.8394848 1.77433524 89 1 C88.67 1.66 88.34 2.32 88 3 C86.68 3 85.36 3 84 3 C84 3.66 84 4.32 84 5 C57.93 5 31.86 5 5 5 C5 4.34 5 3.68 5 3 C2.525 2.01 2.525 2.01 0 1 C0 0.67 0 0.34 0 0 Z " fill="#24291C" transform="translate(423,362)"/>
<path d="M0 0 C1.03717667 -0.00262848 1.03717667 -0.00262848 2.0953064 -0.00531006 C4.38289903 -0.00971348 6.67041438 -0.0067946 8.95800781 -0.00341797 C10.55120865 -0.00409175 12.14440938 -0.0050624 13.73760986 -0.00631714 C17.07996599 -0.00779232 20.42229541 -0.00564644 23.76464844 -0.00097656 C28.03603637 0.00470213 32.30736121 0.00145242 36.5787468 -0.00454903 C39.87140369 -0.00817528 43.16404583 -0.00700626 46.45670319 -0.00442123 C48.03067279 -0.00375671 49.60464375 -0.00456372 51.17861176 -0.00690079 C53.38733934 -0.00945919 55.59596727 -0.00554131 57.8046875 0 C59.05916687 0.00079559 60.31364624 0.00159119 61.60614014 0.00241089 C65.18885451 0.13038474 68.62444252 0.55715235 72.16113281 1.12939453 C72.16113281 1.45939453 72.16113281 1.78939453 72.16113281 2.12939453 C67.33066226 2.90939659 62.69572547 3.25979654 57.8046875 3.2746582 C57.10622711 3.27801682 56.40776672 3.28137543 55.68814087 3.28483582 C53.40307796 3.29425655 51.11808887 3.29628371 48.83300781 3.29736328 C47.23594127 3.30057954 45.63887502 3.30394389 44.04180908 3.30744934 C40.7065767 3.31341653 37.37137015 3.31529148 34.03613281 3.31469727 C29.75993558 3.3145952 25.48390274 3.32830333 21.2077446 3.34546947 C17.91525507 3.35657168 14.62280571 3.35861711 11.33029938 3.35808754 C9.75301796 3.35926819 8.17573553 3.36369473 6.5984726 3.37141991 C4.39886261 3.38119388 2.19961555 3.37835339 0 3.37231445 C-1.251297 3.37373947 -2.50259399 3.37516449 -3.79180908 3.37663269 C-6.83886719 3.12939453 -6.83886719 3.12939453 -9.83886719 1.12939453 C-6.36660847 -0.02802504 -3.66407146 0.00232967 0 0 Z " fill="#1C1E16" transform="translate(438.8388671875,354.87060546875)"/>
<path d="M0 0 C0.33 0 0.66 0 1 0 C1 1.65 1 3.3 1 5 C1.66 5 2.32 5 3 5 C3.02476851 9.19921466 3.04289246 13.39839029 3.05493164 17.59765625 C3.05995206 19.02539816 3.06676972 20.45313496 3.07543945 21.88085938 C3.08760553 23.93621079 3.09325128 25.99149407 3.09765625 28.046875 C3.10289307 29.28276367 3.10812988 30.51865234 3.11352539 31.79199219 C3.02071737 34.4145671 2.78356673 36.51644594 2 39 C1.01 39 0.02 39 -1 39 C-0.67 26.13 -0.34 13.26 0 0 Z " fill="#1E2316" transform="translate(609,246)"/>
<path d="M0 0 C1.32 0 2.64 0 4 0 C4.33 9.57 4.66 19.14 5 29 C5.99 29.33 6.98 29.66 8 30 C6.02 30.66 4.04 31.32 2 32 C2 22.43 2 12.86 2 3 C0.68 2.67 -0.64 2.34 -2 2 C-1.34 1.34 -0.68 0.68 0 0 Z " fill="#484C35" transform="translate(420,227)"/>
<path d="M0 0 C-1.97498901 24.98265839 -1.97498901 24.98265839 -4 35 C-5.485 35.495 -5.485 35.495 -7 36 C-6.79503906 35.22140625 -6.59007812 34.4428125 -6.37890625 33.640625 C-3.84111379 23.10089362 -3.31517716 12.80296891 -3 2 C-4.98 1.34 -6.96 0.68 -9 0 C-9 -0.33 -9 -0.66 -9 -1 C-5.12506344 -2.07637127 -3.47547073 -1.94566951 0 0 Z " fill="#2E301F" transform="translate(550,237)"/>
<path d="M0 0 C5.31932673 0.64088274 7.19572976 2.80172526 10.48046875 6.81640625 C13.52582157 11.19263305 14.12413008 14.69663418 13.625 19.9375 C13.41875 20.948125 13.2125 21.95875 13 23 C11.37542185 19.97076476 10.33644417 16.96319469 9.3125 13.6875 C7.55477859 8.69503653 5.34202144 5.71211127 1.390625 2.2421875 C0.93171875 1.83226562 0.4728125 1.42234375 0 1 C0 0.67 0 0.34 0 0 Z " fill="#323222" transform="translate(561,214)"/>
<path d="M0 0 C0.33 0 0.66 0 1 0 C1 10.89 1 21.78 1 33 C0.34 33 -0.32 33 -1 33 C-1.19218929 28.62218616 -1.37092139 24.24409441 -1.53710938 19.86523438 C-1.59556854 18.37517512 -1.65772629 16.88525624 -1.72363281 15.39550781 C-1.81764056 13.25611936 -1.89840682 11.11658132 -1.9765625 8.9765625 C-2.02893066 7.68830566 -2.08129883 6.40004883 -2.13525391 5.07275391 C-2 2 -2 2 0 0 Z " fill="#343B29" transform="translate(413,245)"/>
<path d="M0 0 C1.9375 0.9375 1.9375 0.9375 4 3 C5.10025523 6.99323401 5.29216243 10.7144853 4.375 14.75 C2.62337663 17.61629279 0.46255666 19.73185571 -2 22 C-2.66 21.34 -3.32 20.68 -4 20 C-3.360625 19.525625 -2.72125 19.05125 -2.0625 18.5625 C1.21785054 14.48691297 1.23833843 9.96839685 0.828125 4.859375 C0.60316222 3.23170311 0.30902993 1.61382296 0 0 Z " fill="#21221A" transform="translate(535,337)"/>
<path d="M0 0 C2.88984148 0.92228983 4.0995287 1.58898112 5.9375 3.9375 C5.6075 4.5975 5.2775 5.2575 4.9375 5.9375 C4.545625 5.421875 4.15375 4.90625 3.75 4.375 C2.8528125 3.6634375 2.8528125 3.6634375 1.9375 2.9375 C-0.71716049 3.16793864 -0.71716049 3.16793864 -3.0625 3.9375 C-2.55951212 8.33864397 -0.97477269 10.64945019 1.9375 13.9375 C-0.67356596 13.58465325 -2.61440182 13.24156662 -4.8125 11.75 C-6.63478937 9.10768042 -6.99725346 7.13458039 -7.0625 3.9375 C-4.93991427 0.62626626 -3.96524823 -0.08092343 0 0 Z " fill="#353528" transform="translate(443.0625,320.0625)"/>
<path d="M0 0 C0.33 0 0.66 0 1 0 C1.01981934 0.58378418 1.03963867 1.16756836 1.06005859 1.76904297 C1.15662861 4.47140268 1.26575973 7.17312394 1.375 9.875 C1.4059375 10.7928125 1.436875 11.710625 1.46875 12.65625 C1.70303519 18.20099946 2.34369427 23.39639885 3.62109375 28.80078125 C4.18774933 32.08972033 3.70473735 34.75820821 3 38 C2.67 38 2.34 38 2 38 C-0.24819963 29.93657535 -0.23179097 22.27130299 -0.125 13.9375 C-0.11494631 12.58138685 -0.1058247 11.22526645 -0.09765625 9.86914062 C-0.07424058 6.579239 -0.04144423 3.28971562 0 0 Z " fill="#3A3D24" transform="translate(464,229)"/>
<path d="M0 0 C2.36008817 3.54013225 2.23463644 5.01121955 2.1953125 9.19921875 C2.18886719 10.40771484 2.18242188 11.61621094 2.17578125 12.86132812 C2.15902344 14.12396484 2.14226563 15.38660156 2.125 16.6875 C2.11597656 17.96173828 2.10695313 19.23597656 2.09765625 20.54882812 C2.07405641 23.69940627 2.04113194 26.84960983 2 30 C0.50463867 28.88745117 0.50463867 28.88745117 -1 27 C-1.2487793 24.1809082 -1.2487793 24.1809082 -1.07421875 20.80078125 C-1.01943359 19.59228516 -0.96464844 18.38378906 -0.90820312 17.13867188 C-0.83537109 15.87603516 -0.76253906 14.61339844 -0.6875 13.3125 C-0.62626953 12.03826172 -0.56503906 10.76402344 -0.50195312 9.45117188 C-0.34851627 6.29981484 -0.1806358 3.14989608 0 0 Z " fill="#39422D" transform="translate(600,230)"/>
<path d="M0 0 C7.26 0 14.52 0 22 0 C21.67 0.99 21.34 1.98 21 3 C13.74 3 6.48 3 -1 3 C-0.67 2.01 -0.34 1.02 0 0 Z " fill="#1A2418" transform="translate(477,345)"/>
<path d="M0 0 C0.66 0 1.32 0 2 0 C1.48223379 4.10447392 -0.64627444 5.95699523 -3.5625 8.75 C-4.80193359 9.94882812 -4.80193359 9.94882812 -6.06640625 11.171875 C-6.70449219 11.77515625 -7.34257813 12.3784375 -8 13 C-8.66 12.67 -9.32 12.34 -10 12 C-8.82744291 8.66272214 -7.81131596 6.22562513 -5 4 C-4.34 4 -3.68 4 -3 4 C-3 3.34 -3 2.68 -3 2 C-2.01 2 -1.02 2 0 2 C0 1.34 0 0.68 0 0 Z " fill="#2F3723" transform="translate(572,309)"/>
<path d="M0 0 C0.33 0 0.66 0 1 0 C1 4.62 1 9.24 1 14 C2.32 14 3.64 14 5 14 C5 14.66 5 15.32 5 16 C6.32 16.33 7.64 16.66 9 17 C9.33 12.05 9.66 7.1 10 2 C10.33 2 10.66 2 11 2 C11 7.61 11 13.22 11 19 C6 18 6 18 0 15 C0 10.05 0 5.1 0 0 Z " fill="#524D2D" transform="translate(439,236)"/>
<path d="M0 0 C2.37706418 3.66539668 2.05094317 6.49056835 1.625 10.75 C1.51414062 11.92046875 1.40328125 13.0909375 1.2890625 14.296875 C1.19367188 15.18890625 1.09828125 16.0809375 1 17 C0.67 17 0.34 17 0 17 C-0.33 19.97 -0.66 22.94 -1 26 C-3 24 -3 24 -3.16699219 22.1081543 C-3.12735352 21.35445557 -3.08771484 20.60075684 -3.046875 19.82421875 C-3.00433594 18.99599609 -2.96179688 18.16777344 -2.91796875 17.31445312 C-2.86253906 16.44755859 -2.80710937 15.58066406 -2.75 14.6875 C-2.71003906 13.83220703 -2.67007812 12.97691406 -2.62890625 12.09570312 C-2.37656038 7.69329067 -2.01645915 4.00812576 0 0 Z " fill="#1C2617" transform="translate(450,228)"/>
<path d="M0 0 C3.44127061 1.5445703 6.18696142 3.582684 9.125 5.9375 C9.99382813 6.62714844 10.86265625 7.31679687 11.7578125 8.02734375 C14 10 14 10 16 13 C12.62537285 12.45276317 10.91765 11.9451 8 10 C8 9.34 8 8.68 8 8 C7.4225 7.79375 6.845 7.5875 6.25 7.375 C3.18589456 5.50249112 1.84460032 3.03041481 0 0 Z " fill="#2D301D" transform="translate(516,176)"/>
<path d="M0 0 C-6.14937199 4.09958133 -13.6866043 5.48755971 -21 5 C-20.401875 4.71125 -19.80375 4.4225 -19.1875 4.125 C-16.80672208 2.95257974 -16.80672208 2.95257974 -14 1 C-8.8260151 -0.61156907 -5.36671049 -1.34167762 0 0 Z " fill="#3C4627" transform="translate(528,361)"/>
<path d="M0 0 C0.66 0.33 1.32 0.66 2 1 C-8.92861892 10.8981288 -8.92861892 10.8981288 -14.8125 11.1875 C-16.3903125 11.0946875 -16.3903125 11.0946875 -18 11 C-14.97176584 8.60175308 -11.84538735 6.75040334 -8.4375 4.9375 C-5.51877355 3.38110991 -2.75474337 1.83649558 0 0 Z " fill="#393C36" transform="translate(549,318)"/>
<path d="M0 0 C0.66 0.33 1.32 0.66 2 1 C1.28972656 1.60585937 0.57945312 2.21171875 -0.15234375 2.8359375 C-6.67377635 8.59471984 -6.67377635 8.59471984 -9.125 16.625 C-9.12948899 18.08392154 -9.10526443 19.54487402 -9 21 C-9.33 21 -9.66 21 -10 21 C-10.10832169 18.91781638 -10.18573541 16.83400871 -10.25 14.75 C-10.29640625 13.58984375 -10.3428125 12.4296875 -10.390625 11.234375 C-10 8 -10 8 -8.15234375 5.68359375 C-5.86826321 3.89695362 -3.52028799 2.43043372 -1 1 C-0.67 0.67 -0.34 0.34 0 0 Z " fill="#1A2218" transform="translate(397,220)"/>
<path d="M0 0 C0.66 0.33 1.32 0.66 2 1 C-1.26813218 5.49368175 -4.00964389 7.83391077 -9.0625 10.12109375 C-11.49625474 11.22511556 -13.73602302 12.58501439 -16 14 C-14.59696759 9.79090278 -11.51861073 8.27846048 -8 5.875 C-3.81251241 3.16024767 -3.81251241 3.16024767 0 0 Z " fill="#3F4237" transform="translate(407,211)"/>
<path d="M0 0 C-0.33 0.99 -0.66 1.98 -1 3 C-7.02232181 4.46619907 -11.90367577 5.32528788 -18 4 C-18 3.67 -18 3.34 -18 3 C-15.93918639 2.49309416 -13.87626474 1.99475381 -11.8125 1.5 C-10.66394531 1.2215625 -9.51539063 0.943125 -8.33203125 0.65625 C-5.43181171 0.08504615 -2.93903615 -0.13283779 0 0 Z " fill="#292C1D" transform="translate(521,341)"/>
<path d="M0 0 C3.58513106 1.62184501 6.58992323 3.79256239 9.75 6.125 C11.22726562 7.21167969 11.22726562 7.21167969 12.734375 8.3203125 C13.48203125 8.87460938 14.2296875 9.42890625 15 10 C14.67 10.66 14.34 11.32 14 12 C7.56187438 9.917077 3.08526592 5.99912817 0 0 Z " fill="#232718" transform="translate(543,198)"/>
<path d="M0 0 C1.18613892 0.00785522 1.18613892 0.00785522 2.39624023 0.01586914 C3.67724609 0.02070313 3.67724609 0.02070313 4.98413086 0.02563477 C5.88196289 0.03401367 6.77979492 0.04239258 7.70483398 0.05102539 C8.6065332 0.05553711 9.50823242 0.06004883 10.43725586 0.06469727 C12.67234712 0.07652315 14.90730835 0.09300319 17.14233398 0.11352539 C15.00227035 2.52184323 14.49203588 3.07112347 11.14624023 3.47680664 C9.44274414 3.45166992 9.44274414 3.45166992 7.70483398 3.42602539 C6.57174805 3.4221582 5.43866211 3.41829102 4.27124023 3.41430664 C1.32658853 3.13123775 -0.37089674 2.64713494 -2.85766602 1.11352539 C-1.85766602 0.11352539 -1.85766602 0.11352539 0 0 Z " fill="#0D150E" transform="translate(475.857666015625,335.886474609375)"/>
<path d="M0 0 C0.99 0.33 1.98 0.66 3 1 C3 11.23 3 21.46 3 32 C2.67 32 2.34 32 2 32 C1.97494385 31.24380371 1.9498877 30.48760742 1.92407227 29.70849609 C1.80763114 26.26384541 1.68512338 22.81943592 1.5625 19.375 C1.52318359 18.18519531 1.48386719 16.99539062 1.44335938 15.76953125 C1.40146484 14.61582031 1.35957031 13.46210938 1.31640625 12.2734375 C1.27974854 11.21560059 1.24309082 10.15776367 1.20532227 9.06787109 C0.99937941 5.99072727 0.55819179 3.0313191 0 0 Z " fill="#0F1E0F" transform="translate(600,227)"/>
<path d="M0 0 C6.75 0.75 6.75 0.75 9 3 C8.875 6.5 8.875 6.5 8 10 C5.9375 11.4375 5.9375 11.4375 4 12 C4.29296875 9.98177083 4.5859375 7.96354167 4.87890625 5.9453125 C5.1684297 3.91859333 5.1684297 3.91859333 4 2 C1.98330173 0.86649466 1.98330173 0.86649466 0 0 Z " fill="#1A2317" transform="translate(522,340)"/>
<path d="M0 0 C6 2 6 2 8.9375 3.0625 C12.28184118 4.08627791 15.5319827 4.58383792 19 5 C19 5.99 19 6.98 19 8 C11.83292123 7.67422369 6.23072876 4.34556372 0 1 C0 0.67 0 0.34 0 0 Z " fill="#3D4131" transform="translate(447,337)"/>
<path d="M0 0 C0 0.66 0 1.32 0 2 C0.99 2 1.98 2 3 2 C2.67 2.99 2.34 3.98 2 5 C0.75863281 4.27876953 0.75863281 4.27876953 -0.5078125 3.54296875 C-4.36467547 1.83887381 -7.73033687 1.45306513 -11.875 1.3125 C-12.56335938 1.27833984 -13.25171875 1.24417969 -13.9609375 1.20898438 C-15.64008613 1.12735909 -17.32001168 1.0619843 -19 1 C-19 0.67 -19 0.34 -19 0 C-12.41816638 -0.8931507 -6.57849492 -0.95494281 0 0 Z " fill="#C89F83" transform="translate(591,143)"/>
<path d="M0 0 C0 3 0 3 -1.75 5.04296875 C-2.4925 5.75066406 -3.235 6.45835937 -4 7.1875 C-4.7425 7.90292969 -5.485 8.61835938 -6.25 9.35546875 C-7.11625 10.16951172 -7.11625 10.16951172 -8 11 C-8.66 10.67 -9.32 10.34 -10 10 C-8.26548969 5.31682216 -4.40759243 2.20379621 0 0 Z " fill="#1C261D" transform="translate(564,306)"/>
<path d="M0 0 C0.66 0 1.32 0 2 0 C0.60485497 4.43909781 -1.47695811 6.98024981 -5 10 C-7.3125 10.8125 -7.3125 10.8125 -9 11 C-9 8 -9 8 -7.28515625 6.2109375 C-6.18494141 5.30214844 -6.18494141 5.30214844 -5.0625 4.375 C-4.33160156 3.76398438 -3.60070312 3.15296875 -2.84765625 2.5234375 C-2.23792969 2.02070313 -1.62820313 1.51796875 -1 1 C-0.67 0.67 -0.34 0.34 0 0 Z " fill="#1F261E" transform="translate(530,293)"/>
<path d="M0 0 C-0.33 0.66 -0.66 1.32 -1 2 C-2.32 2 -3.64 2 -5 2 C-5 2.66 -5 3.32 -5 4 C-11.93 3.505 -11.93 3.505 -19 3 C-19 2.67 -19 2.34 -19 2 C-16.77149723 1.66225668 -14.54216533 1.3299813 -12.3125 1 C-10.45044922 0.7215625 -10.45044922 0.7215625 -8.55078125 0.4375 C-5.64113629 0.07899589 -2.92299978 -0.08942256 0 0 Z " fill="#151D12" transform="translate(512,363)"/>
<path d="M0 0 C2 0 2 0 3.5078125 1.4609375 C4.04148437 2.09257812 4.57515625 2.72421875 5.125 3.375 C5.66382813 4.00148438 6.20265625 4.62796875 6.7578125 5.2734375 C8 7 8 7 8 9 C8.66 9 9.32 9 10 9 C9.67 10.32 9.34 11.64 9 13 C1.33257403 4.738041 1.33257403 4.738041 0 0 Z " fill="#393928" transform="translate(475,289)"/>
<path d="M0 0 C0 0.66 0 1.32 0 2 C0.66 2 1.32 2 2 2 C2 8.93 2 15.86 2 23 C1.67 23 1.34 23 1 23 C1 16.4 1 9.8 1 3 C-1.97 2.67 -4.94 2.34 -8 2 C-8 1.67 -8 1.34 -8 1 C-2.25 0 -2.25 0 0 0 Z " fill="#14140E" transform="translate(557,226)"/>
<path d="M0 0 C0.639375 0.268125 1.27875 0.53625 1.9375 0.8125 C5.91202261 2.35364142 9.94884495 3.67609312 14 5 C11 7 11 7 8.125 6.875 C4.57539747 5.88111129 2.63193053 4.5545208 0 2 C0 1.34 0 0.68 0 0 Z " fill="#1E2417" transform="translate(470,327)"/>
<path d="M0 0 C1.32 0.33 2.64 0.66 4 1 C5.50777689 6.31943687 5.67629088 11.68128842 4.125 17 C3 19 3 19 1 20 C1.144375 19.360625 1.28875 18.72125 1.4375 18.0625 C1.623125 17.051875 1.80875 16.04125 2 15 C2.19529297 13.948125 2.19529297 13.948125 2.39453125 12.875 C3.20083797 7.62957606 2.97453208 4.64027005 0 0 Z " fill="#4A4937" transform="translate(442,268)"/>
<path d="M0 0 C1.64819 2.11910143 3.04568538 4.09137076 4.25 6.5 C6.66048944 9.94355635 9.27309325 11.10138713 13 13 C12.01 13.33 11.02 13.66 10 14 C5.11265718 11.29636354 1.12738104 8.12197827 -0.8125 2.75 C-0.874375 2.1725 -0.93625 1.595 -1 1 C-0.67 0.67 -0.34 0.34 0 0 Z " fill="#393C29" transform="translate(415,352)"/>
<path d="M0 0 C-10.37357631 7.66742597 -10.37357631 7.66742597 -16 9 C-15.67 8.01 -15.34 7.02 -15 6 C-13.67696283 5.6278958 -12.34262065 5.29369827 -11 5 C-10.67 4.34 -10.34 3.68 -10 3 C-8.68 3 -7.36 3 -6 3 C-6 2.01 -6 1.02 -6 0 C-2.25 -1.125 -2.25 -1.125 0 0 Z " fill="#434A3C" transform="translate(572,344)"/>
<path d="M0 0 C0.33 0 0.66 0 1 0 C1.29530838 6.49678438 0.17293889 12.6221448 -1 19 C-1.99 19.33 -2.98 19.66 -4 20 C-2.68 13.4 -1.36 6.8 0 0 Z " fill="#434130" transform="translate(547,253)"/>
<path d="M0 0 C0.33 0.99 0.66 1.98 1 3 C-0.2608012 4.03319813 -1.53403258 5.05124379 -2.8125 6.0625 C-3.87404297 6.91521484 -3.87404297 6.91521484 -4.95703125 7.78515625 C-5.63121094 8.18605469 -6.30539062 8.58695313 -7 9 C-7.99 8.67 -8.98 8.34 -10 8 C-8.71064081 6.85157077 -7.41843421 5.70633773 -6.125 4.5625 C-5.04605469 3.60537109 -5.04605469 3.60537109 -3.9453125 2.62890625 C-2 1 -2 1 0 0 Z " fill="#393F35" transform="translate(481,185)"/>
<path d="M0 0 C0.33 0 0.66 0 1 0 C1.07347656 0.95712891 1.07347656 0.95712891 1.1484375 1.93359375 C1.22320312 2.75988281 1.29796875 3.58617187 1.375 4.4375 C1.44460938 5.26121094 1.51421875 6.08492187 1.5859375 6.93359375 C1.72257812 7.61550781 1.85921875 8.29742187 2 9 C2.66 9.33 3.32 9.66 4 10 C4 10.66 4 11.32 4 12 C2.02 12.99 0.04 13.98 -2 15 C-2 13.68 -2 12.36 -2 11 C-1.34 11 -0.68 11 0 11 C0 7.37 0 3.74 0 0 Z " fill="#1B1F12" transform="translate(462,171)"/>
<path d="M0 0 C4.74811977 0.88044605 7.79913718 3.4790509 11 7 C11.9375 9.875 11.9375 9.875 12 12 C11.319375 11.29875 10.63875 10.5975 9.9375 9.875 C7.22379838 7.14570239 4.31945276 4.68645559 1.35546875 2.234375 C0.90816406 1.82703125 0.46085938 1.4196875 0 1 C0 0.67 0 0.34 0 0 Z " fill="#B18D6A" transform="translate(604,132)"/>
<path d="M0 0 C0.33 0 0.66 0 1 0 C1.90077361 3.52120592 2.21686761 5.44578278 0.875 8.875 C-1 11 -1 11 -3.6875 11.3125 C-4.450625 11.209375 -5.21375 11.10625 -6 11 C-6.33 10.34 -6.66 9.68 -7 9 C-5.35 9 -3.7 9 -2 9 C-1.34 6.03 -0.68 3.06 0 0 Z " fill="#C99F77" transform="translate(648,148)"/>
<path d="M0 0 C0.99 0.66 1.98 1.32 3 2 C1 5 1 5 -1.4375 5.625 C-2.283125 5.74875 -3.12875 5.8725 -4 6 C-4.99 6.33 -5.98 6.66 -7 7 C-7 6.01 -7 5.02 -7 4 C-4.69 2.68 -2.38 1.36 0 0 Z " fill="#171C15" transform="translate(535,360)"/>
<path d="M0 0 C1.4540625 0.0309375 1.4540625 0.0309375 2.9375 0.0625 C2.174375 0.578125 1.41125 1.09375 0.625 1.625 C-2.67825607 4.62097644 -3.54875726 6.91962514 -5.0625 11.0625 C-6.53011039 7.24671299 -5.5426051 4.76276276 -4.0625 1.0625 C-3.0625 0.0625 -3.0625 0.0625 0 0 Z " fill="#182217" transform="translate(547.0625,345.9375)"/>
<path d="M0 0 C0.33 0.99 0.66 1.98 1 3 C-4.24385089 4.7479503 -8.47322267 5.19392201 -14 5 C-11.42853943 2.42853943 -9.3949583 2.19882003 -5.875 1.375 C-4.77929688 1.11460937 -3.68359375 0.85421875 -2.5546875 0.5859375 C-1.29011719 0.29589844 -1.29011719 0.29589844 0 0 Z " fill="#323531" transform="translate(524,330)"/>
<path d="M0 0 C4.30764815 1.56641751 8.06171464 3.68336156 12 6 C12 6.33 12 6.66 12 7 C7.58682597 6.74040153 5.48336872 6.41137763 2.0625 3.5 C0 1 0 1 0 0 Z " fill="#29281D" transform="translate(515,223)"/>
<path d="M0 0 C4.85042388 0.41575062 6.84319505 2.41659978 10 6 C10.99 7.485 10.99 7.485 12 9 C8.98472262 7.59422879 6.4052059 5.93873852 3.75 3.9375 C3.04359375 3.41027344 2.3371875 2.88304687 1.609375 2.33984375 C1.07828125 1.89769531 0.5471875 1.45554688 0 1 C0 0.67 0 0.34 0 0 Z " fill="#4A372A" transform="translate(595,209)"/>
<path d="M0 0 C5.1154241 3.36156441 7.3265957 7.67594378 10 13 C9.34 13 8.68 13 8 13 C6.66666667 11 5.33333333 9 4 7 C3.2575 6.46375 2.515 5.9275 1.75 5.375 C0.88375 4.694375 0.88375 4.694375 0 4 C0 2.68 0 1.36 0 0 Z " fill="#B9896E" transform="translate(602,140)"/>
<path d="M0 0 C0.33 0.66 0.66 1.32 1 2 C-1.31 5.3 -3.62 8.6 -6 12 C-6 9.02040707 -5.900068 6.83867599 -5 4 C-2.4375 1.6875 -2.4375 1.6875 0 0 Z " fill="#33372A" transform="translate(548,288)"/>
<path d="M0 0 C0.33 0 0.66 0 1 0 C1 3.63 1 7.26 1 11 C1.66 11 2.32 11 3 11 C3 12.65 3 14.3 3 16 C0.7522025 13.94766315 -0.0022242 12.99332739 -1 10 C-1.13156527 6.31617231 -1.16982138 3.50946415 0 0 Z " fill="#353527" transform="translate(386,230)"/>
<path d="M0 0 C0.33 0 0.66 0 1 0 C1.125 5.75 1.125 5.75 0 8 C-3.375 8.1875 -3.375 8.1875 -7 8 C-7.66 7.01 -8.32 6.02 -9 5 C-8.236875 5.226875 -7.47375 5.45375 -6.6875 5.6875 C-4.0109092 6.30349941 -4.0109092 6.30349941 -2.25 4.75 C-0.80700616 2.91116157 -0.80700616 2.91116157 0 0 Z " fill="#C79F7D" transform="translate(613,158)"/>
<path d="M0 0 C1.09506492 3.28519475 1.09960608 5.73663415 1.0625 9.1875 C1.05347656 10.27417969 1.04445313 11.36085937 1.03515625 12.48046875 C1.02355469 13.31191406 1.01195312 14.14335937 1 15 C-0.65 14.67 -2.3 14.34 -4 14 C-4 13.01 -4 12.02 -4 11 C-3.01 11 -2.02 11 -1 11 C-1.01160156 10.37351563 -1.02320313 9.74703125 -1.03515625 9.1015625 C-1.04417969 8.28429687 -1.05320312 7.46703125 -1.0625 6.625 C-1.07410156 5.81289062 -1.08570313 5.00078125 -1.09765625 4.1640625 C-1 2 -1 2 0 0 Z " fill="#161A10" transform="translate(562,169)"/>
<path d="M0 0 C0.33 0 0.66 0 1 0 C1 2.31 1 4.62 1 7 C2.65 7 4.3 7 6 7 C6 7.66 6 8.32 6 9 C6.66 9.33 7.32 9.66 8 10 C5.1875 10.3125 5.1875 10.3125 2 10 C0.0625 7.8125 0.0625 7.8125 -1 5 C-0.6875 2.1875 -0.6875 2.1875 0 0 Z " fill="#C9A17C" transform="translate(621,152)"/>
<path d="M0 0 C0.99 0.33 1.98 0.66 3 1 C2.67 1.66 2.34 2.32 2 3 C1.01 3 0.02 3 -1 3 C-3.20142332 5.4390706 -3.20142332 5.4390706 -5 8 C-5.99 7.67 -6.98 7.34 -8 7 C-5.42215154 4.35247996 -3.08351902 2.05567935 0 0 Z " fill="#33382F" transform="translate(440,154)"/>
<path d="M0 0 C0.66 0.99 1.32 1.98 2 3 C1.43410156 3.19335938 0.86820313 3.38671875 0.28515625 3.5859375 C-0.81505859 3.97652344 -0.81505859 3.97652344 -1.9375 4.375 C-2.66839844 4.63023437 -3.39929688 4.88546875 -4.15234375 5.1484375 C-6.18682116 5.85271413 -6.18682116 5.85271413 -7 8 C-8.32 7.67 -9.64 7.34 -11 7 C-5.375 3 -5.375 3 -2 3 C-2 2.34 -2 1.68 -2 1 C-1.34 0.67 -0.68 0.34 0 0 Z " fill="#344131" transform="translate(562,336)"/>
<path d="M0 0 C1 3 1 3 0.375 5.0625 C-1.44138447 7.62195085 -3.00049296 8.19525421 -6 9 C-6.99 8.67 -7.98 8.34 -9 8 C-4.25 5 -4.25 5 -2 5 C-1.34 3.35 -0.68 1.7 0 0 Z " fill="#393936" transform="translate(585,179)"/>
<path d="M0 0 C0.99386719 0.02707031 1.98773437 0.05414063 3.01171875 0.08203125 C4.15060547 0.13423828 4.15060547 0.13423828 5.3125 0.1875 C2.17980295 3.32019705 -0.66078423 3.24244397 -4.9375 3.25 C-6.79375 3.2190625 -6.79375 3.2190625 -8.6875 3.1875 C-6.10291354 -0.17334451 -4.11082043 -0.14508778 0 0 Z " fill="#161C17" transform="translate(512.6875,333.8125)"/>
<path d="M0 0 C0.66 0.33 1.32 0.66 2 1 C1.54625 1.598125 1.0925 2.19625 0.625 2.8125 C-0.63295913 4.50590652 -1.82984724 6.24477086 -3 8 C-5.625 9.1875 -5.625 9.1875 -8 10 C-6.34908222 5.70761377 -3.26245434 3.1206085 0 0 Z " fill="#343F34" transform="translate(570,298)"/>
<path d="M0 0 C-0.33 0.99 -0.66 1.98 -1 3 C-4.45925163 1.7508258 -7.14693203 0.32472205 -10 -2 C-5.82412255 -3.39195915 -3.86525224 -1.82323219 0 0 Z " fill="#1A1E12" transform="translate(500,331)"/>
<path d="M0 0 C0.86625 0.37125 0.86625 0.37125 1.75 0.75 C-0.58333333 3.08333333 -2.91666667 5.41666667 -5.25 7.75 C-6 6 -6 6 -6.25 3.75 C-3.25 -0.36111111 -3.25 -0.36111111 0 0 Z " fill="#433D2B" transform="translate(583.25,266.25)"/>
<path d="M0 0 C0 0.99 0 1.98 0 3 C-3.0080208 6.0080208 -5.85463326 6.5289356 -10 7 C-3.24137931 0 -3.24137931 0 0 0 Z " fill="#1D2116" transform="translate(407,224)"/>
<path d="M0 0 C0.66 0.33 1.32 0.66 2 1 C-2.30769231 6.78461538 -2.30769231 6.78461538 -5.8125 7.875 C-6.8953125 7.936875 -6.8953125 7.936875 -8 8 C-5.58443874 4.80800833 -3.31996462 2.25283313 0 0 Z " fill="#3D453C" transform="translate(500,169)"/>
<path d="M0 0 C0.99 0 1.98 0 3 0 C1.73058503 3.91402949 0.48832306 5.79072873 -3 8 C-2.45276317 4.62537285 -1.9451 2.91765 0 0 Z " fill="#1E261D" transform="translate(536,285)"/>
<path d="M0 0 C1.2065625 0.0309375 1.2065625 0.0309375 2.4375 0.0625 C2.7675 0.7225 3.0975 1.3825 3.4375 2.0625 C2.4475 2.5575 2.4475 2.5575 1.4375 3.0625 C1.7675 4.0525 2.0975 5.0425 2.4375 6.0625 C0 5.25 0 5.25 -2.5625 4.0625 C-2.8925 3.0725 -3.2225 2.0825 -3.5625 1.0625 C-2.5625 0.0625 -2.5625 0.0625 0 0 Z " fill="#323221" transform="translate(572.5625,187.9375)"/>
<path d="M0 0 C0.33 0 0.66 0 1 0 C1.33820166 1.5823006 1.67035939 3.16589375 2 4.75 C2.185625 5.63171875 2.37125 6.5134375 2.5625 7.421875 C3 10 3 10 3 14 C0.525 13.01 0.525 13.01 -2 12 C-1.34 11.67 -0.68 11.34 0 11 C0 7.37 0 3.74 0 0 Z " fill="#574C2F" transform="translate(562,172)"/>
<path d="M0 0 C0 0.33 0 0.66 0 1 C-1.58294782 1.05437607 -3.16644256 1.09296271 -4.75 1.125 C-5.63171875 1.14820313 -6.5134375 1.17140625 -7.421875 1.1953125 C-10.1135858 0.99139502 -11.69904974 0.36551721 -14 -1 C-8.65998179 -2.33500455 -5.16044765 -1.512545 0 0 Z " fill="#313825" transform="translate(481,346)"/>
<path d="M0 0 C0 4.45351799 -1.55160412 7.32740617 -4 11 C-4.66 11 -5.32 11 -6 11 C-4.74194623 6.49197399 -3.09592835 3.5087188 0 0 Z " fill="#47483D" transform="translate(450,210)"/>
<path d="M0 0 C0.99 0.66 1.98 1.32 3 2 C0.03 4.475 0.03 4.475 -3 7 C-3.66 6.67 -4.32 6.34 -5 6 C-3.86695008 2.60085025 -2.87481525 1.94745549 0 0 Z " fill="#44462A" transform="translate(430,205)"/>
<path d="M0 0 C0.66 0 1.32 0 2 0 C1.42415568 2.38564077 0.77772405 4.66682784 0 7 C0.99 8.485 0.99 8.485 2 10 C-0.475 9.01 -0.475 9.01 -3 8 C-1.125 1.125 -1.125 1.125 0 0 Z " fill="#33312E" transform="translate(592,185)"/>
<path d="M0 0 C0.99 0.33 1.98 0.66 3 1 C0.6875 3.5 0.6875 3.5 -2 6 C-2.99 6 -3.98 6 -5 6 C-3.63016497 2.83884224 -3.0109362 2.0072908 0 0 Z " fill="#1D241D" transform="translate(505,165)"/>
<path d="M0 0 C-1.8125 2 -1.8125 2 -4 4 C-4.99 4 -5.98 4 -7 4 C-6.6875 2.0625 -6.6875 2.0625 -6 0 C-3 -1 -3 -1 0 0 Z " fill="#202A1A" transform="translate(520,297)"/>
<path d="M0 0 C1.22329074 3.66987221 0.88021006 6.33967822 0.5625 10.1875 C0.46066406 11.45980469 0.35882813 12.73210937 0.25390625 14.04296875 C0.12822266 15.50669922 0.12822266 15.50669922 0 17 C-0.33 17 -0.66 17 -1 17 C-1.33 11.72 -1.66 6.44 -2 1 C-1.34 0.67 -0.68 0.34 0 0 Z " fill="#11140D" transform="translate(441,233)"/>
<path d="M0 0 C6.75 0.75 6.75 0.75 9 3 C7.02 3.99 7.02 3.99 5 5 C3.35 3.35 1.7 1.7 0 0 Z " fill="#333926" transform="translate(552,177)"/>
<path d="M0 0 C0 3.99904969 -1.72586967 5.80200422 -4 9 C-4.99 8.34 -5.98 7.68 -7 7 C-4.69 4.69 -2.38 2.38 0 0 Z " fill="#3C443C" transform="translate(513,157)"/>
<path d="M0 0 C0.66 0.33 1.32 0.66 2 1 C0.02 3.31 -1.96 5.62 -4 8 C-4.66 7.67 -5.32 7.34 -6 7 C-6 6.34 -6 5.68 -6 5 C-4.04072937 3.2856382 -2.04119788 1.61594832 0 0 Z " fill="#343833" transform="translate(570,329)"/>
<path d="M0 0 C2.1875 0.3125 2.1875 0.3125 4 1 C1.03 3.475 1.03 3.475 -2 6 C-2.33 5.01 -2.66 4.02 -3 3 C-1.75 1.4375 -1.75 1.4375 0 0 Z " fill="#313830" transform="translate(576,258)"/>
<path d="M0 0 C0.99 0.66 1.98 1.32 3 2 C0.03 4.475 0.03 4.475 -3 7 C-3.66 6.67 -4.32 6.34 -5 6 C-3.63016497 2.83884224 -3.0109362 2.0072908 0 0 Z " fill="#46412D" transform="translate(475,201)"/>
<path d="M0 0 C0.99 0.33 1.98 0.66 3 1 C0.36 2.98 -2.28 4.96 -5 7 C-4 3 -4 3 -2.125 1.1875 C-1.42375 0.795625 -0.7225 0.40375 0 0 Z " fill="#45452B" transform="translate(501,152)"/>
<path d="M0 0 C4 2 4 2 4.828125 4.1640625 C4.96734375 4.97617188 5.1065625 5.78828125 5.25 6.625 C5.39953125 7.44226563 5.5490625 8.25953125 5.703125 9.1015625 C5.80109375 9.72804687 5.8990625 10.35453125 6 11 C5.34 11 4.68 11 4 11 C2.68 7.37 1.36 3.74 0 0 Z " fill="#C09873" transform="translate(632,137)"/>
<path d="M0 0 C1.43836751 0.11458693 2.87570966 0.24209116 4.3125 0.375 C5.51326172 0.47941406 5.51326172 0.47941406 6.73828125 0.5859375 C9 1 9 1 12 3 C12 3.66 12 4.32 12 5 C10.56068883 4.54738642 9.12361001 4.08767021 7.6875 3.625 C6.88699219 3.36976562 6.08648438 3.11453125 5.26171875 2.8515625 C3 2 3 2 0 0 Z " fill="#BE9475" transform="translate(597,109)"/>
<path d="M0 0 C0.66 0 1.32 0 2 0 C1.60196439 2.88575819 1.20990931 3.82189513 -1.0625 5.75 C-1.701875 6.1625 -2.34125 6.575 -3 7 C-3 5.35 -3 3.7 -3 2 C-2.01 2 -1.02 2 0 2 C0 1.34 0 0.68 0 0 Z " fill="#383A2D" transform="translate(572,309)"/>
<path d="M0 0 C-0.66 0.66 -1.32 1.32 -2 2 C-4.72869407 1.96712417 -7.2966618 1.43602229 -10 1 C-6.1496895 -1.56687367 -4.41430237 -0.83288724 0 0 Z " fill="#11130E" transform="translate(594,289)"/>
<path d="M0 0 C-0.33 0.66 -0.66 1.32 -1 2 C-3.97 1.67 -6.94 1.34 -10 1 C-6.1496895 -1.56687367 -4.41430237 -0.83288724 0 0 Z " fill="#12140F" transform="translate(440,289)"/>
<path d="M0 0 C0.66 0.33 1.32 0.66 2 1 C2 3.97 2 6.94 2 10 C1.01 9.01 0.02 8.02 -1 7 C-0.6875 3.3125 -0.6875 3.3125 0 0 Z " fill="#161F15" transform="translate(574,235)"/>
<path d="M0 0 C2.4375 0.1875 2.4375 0.1875 5 1 C6.3125 3.0625 6.3125 3.0625 7 5 C1.25 3.25 1.25 3.25 -1 1 C-0.67 0.67 -0.34 0.34 0 0 Z " fill="#221F18" transform="translate(514,231)"/>
<path d="M0 0 C0.66 0.33 1.32 0.66 2 1 C0.35 2.98 -1.3 4.96 -3 7 C-3.99 6.34 -4.98 5.68 -6 5 C-4.02 3.35 -2.04 1.7 0 0 Z " fill="#515741" transform="translate(407,211)"/>
<path d="M0 0 C1.32 0.33 2.64 0.66 4 1 C4.33 3.31 4.66 5.62 5 8 C2.74754119 5.31158141 1.11786042 3.35358125 0 0 Z " fill="#282C1D" transform="translate(572,211)"/>
<path d="M0 0 C0.66 0.99 1.32 1.98 2 3 C-0.76223278 5.76223278 -3.20706617 5.57856291 -7 6 C-3.25 3 -3.25 3 -1 3 C-0.67 2.01 -0.34 1.02 0 0 Z " fill="#3B4037" transform="translate(598,283)"/>
<path d="M0 0 C1.9375 1.0625 1.9375 1.0625 4 3 C4.75 6.6875 4.75 6.6875 5 10 C2.66063182 7.87330165 1.19346152 5.93775144 0 3 C0 2.01 0 1.02 0 0 Z " fill="#454331" transform="translate(470,278)"/>
<path d="M0 0 C0.33 0 0.66 0 1 0 C1 2.97 1 5.94 1 9 C0.34 9 -0.32 9 -1 9 C-1.625 5.625 -1.625 5.625 -2 2 C-1.34 1.34 -0.68 0.68 0 0 Z " fill="#3E4831" transform="translate(413,245)"/>
<path d="M0 0 C0.66 0.33 1.32 0.66 2 1 C0.68 2.65 -0.64 4.3 -2 6 C-3.32 5.67 -4.64 5.34 -6 5 C-4.02 3.35 -2.04 1.7 0 0 Z " fill="#4B4E43" transform="translate(415,205)"/>
<path d="M0 0 C0.66 0.33 1.32 0.66 2 1 C0.68 2.65 -0.64 4.3 -2 6 C-3.32 5.67 -4.64 5.34 -6 5 C-4.02 3.35 -2.04 1.7 0 0 Z " fill="#4E4F43" transform="translate(469,194)"/>
<path d="M0 0 C0.99 0.33 1.98 0.66 3 1 C0.03 3.475 0.03 3.475 -3 6 C-3.33 5.01 -3.66 4.02 -4 3 C-2.1875 1.4375 -2.1875 1.4375 0 0 Z " fill="#48493E" transform="translate(487,163)"/>
<path d="M0 0 C2.3125 0.1875 2.3125 0.1875 5 1 C6.8125 3.5625 6.8125 3.5625 8 6 C4.63408134 4.55746343 2.48952921 2.66735273 0 0 Z " fill="#3E3C29" transform="translate(535,164)"/>
<path d="M0 0 C0.66 0.33 1.32 0.66 2 1 C2 1.66 2 2.32 2 3 C-2.625 5.125 -2.625 5.125 -6 4 C-4.02 2.68 -2.04 1.36 0 0 Z " fill="#35372E" transform="translate(565,154)"/>
<path d="M0 0 C0.66 0.33 1.32 0.66 2 1 C0.68 2.65 -0.64 4.3 -2 6 C-3.32 5.67 -4.64 5.34 -6 5 C-4.02 3.35 -2.04 1.7 0 0 Z " fill="#444F3F" transform="translate(493,146)"/>
<path d="M0 0 C0 0.99 0 1.98 0 3 C-3 5 -3 5 -5.1875 4.625 C-5.785625 4.41875 -6.38375 4.2125 -7 4 C-2.25 0 -2.25 0 0 0 Z " fill="#40433C" transform="translate(502,141)"/>
<path d="M0 0 C4.31392226 0.4793247 6.16569547 1.7457985 9 5 C6.69 4.34 4.38 3.68 2 3 C2 2.34 2 1.68 2 1 C1.34 0.67 0.68 0.34 0 0 Z " fill="#C7A580" transform="translate(590,124)"/>
<path d="M0 0 C2.475 0.495 2.475 0.495 5 1 C5.33 2.65 5.66 4.3 6 6 C3.97945196 4.35830472 1.97956942 2.69088222 0 1 C0 0.67 0 0.34 0 0 Z " fill="#C59670" transform="translate(618,120)"/>
<path d="M0 0 C2.31 1.65 4.62 3.3 7 5 C6.01 5.495 6.01 5.495 5 6 C2.375 5.0625 2.375 5.0625 0 4 C0 2.68 0 1.36 0 0 Z " fill="#322F1D" transform="translate(469,314)"/>
<path d="M0 0 C1.32 0.33 2.64 0.66 4 1 C4 1.66 4 2.32 4 3 C1.625 4.6875 1.625 4.6875 -1 6 C-1.66 5.67 -2.32 5.34 -3 5 C-2.505 4.54625 -2.01 4.0925 -1.5 3.625 C0.22609337 2.12364481 0.22609337 2.12364481 0 0 Z " fill="#32372A" transform="translate(522,312)"/>
<path d="M0 0 C1.32 0.99 2.64 1.98 4 3 C3.67 4.32 3.34 5.64 3 7 C1.68 5.35 0.36 3.7 -1 2 C-0.67 1.34 -0.34 0.68 0 0 Z " fill="#3B3425" transform="translate(572,289)"/>
<path d="M0 0 C2.12046792 3.53411321 2.53199289 6.94393835 3 11 C1 10 1 10 -0.1875 7.75 C-1.08937081 4.69751418 -0.86361585 3.02265546 0 0 Z " fill="#4C4226" transform="translate(477,259)"/>
<path d="M0 0 C3.3 0 6.6 0 10 0 C6.71299843 1.64350079 4.52069985 2.41321669 1 3 C0.67 2.01 0.34 1.02 0 0 Z " fill="#1C2016" transform="translate(618,249)"/>
<path d="M0 0 C2 1.5 2 1.5 4 4 C4.35800135 6.75871627 4.18660165 9.20097524 4 12 C3.67 12 3.34 12 3 12 C1.82923301 8.01939223 0.74250597 4.08378283 0 0 Z " fill="#101810" transform="translate(584,166)"/>
</svg>
